<svg viewBox="0 0 1326.3333740234375 400" xmlns="http://www.w3.org/2000/svg"><g><g><g><g><g><line x1="50" y1="378" x2="45" y2="378" style="visibility: inherit;" fill="rgb(0, 0, 0)" stroke="rgb(204, 204, 204)" stroke-width="1px"></line><line x1="50" y1="351" x2="45" y2="351" style="visibility: inherit;" fill="rgb(0, 0, 0)" stroke="rgb(204, 204, 204)" stroke-width="1px"></line><line x1="50" y1="323.99999999999994" x2="45" y2="323.99999999999994" style="visibility: inherit;" fill="rgb(0, 0, 0)" stroke="rgb(204, 204, 204)" stroke-width="1px"></line><line x1="50" y1="296.99999999999994" x2="45" y2="296.99999999999994" style="visibility: inherit;" fill="rgb(0, 0, 0)" stroke="rgb(204, 204, 204)" stroke-width="1px"></line><line x1="50" y1="269.99999999999994" x2="45" y2="269.99999999999994" style="visibility: inherit;" fill="rgb(0, 0, 0)" stroke="rgb(204, 204, 204)" stroke-width="1px"></line><line x1="50" y1="243.00000000000003" x2="45" y2="243.00000000000003" style="visibility: inherit;" fill="rgb(0, 0, 0)" stroke="rgb(204, 204, 204)" stroke-width="1px"></line><line x1="50" y1="216.00000000000003" x2="45" y2="216.00000000000003" style="visibility: inherit;" fill="rgb(0, 0, 0)" stroke="rgb(204, 204, 204)" stroke-width="1px"></line><line x1="50" y1="189" x2="45" y2="189" style="visibility: inherit;" fill="rgb(0, 0, 0)" stroke="rgb(204, 204, 204)" stroke-width="1px"></line><line x1="50" y1="161.99999999999997" x2="45" y2="161.99999999999997" style="visibility: inherit;" fill="rgb(0, 0, 0)" stroke="rgb(204, 204, 204)" stroke-width="1px"></line><line x1="50" y1="134.99999999999994" x2="45" y2="134.99999999999994" style="visibility: inherit;" fill="rgb(0, 0, 0)" stroke="rgb(204, 204, 204)" stroke-width="1px"></line><line x1="50" y1="107.99999999999994" x2="45" y2="107.99999999999994" style="visibility: inherit;" fill="rgb(0, 0, 0)" stroke="rgb(204, 204, 204)" stroke-width="1px"></line><line x1="50" y1="81.00000000000006" x2="45" y2="81.00000000000006" style="visibility: inherit;" fill="rgb(0, 0, 0)" stroke="rgb(204, 204, 204)" stroke-width="1px"></line><line x1="50" y1="54.00000000000006" x2="45" y2="54.00000000000006" style="visibility: inherit;" fill="rgb(0, 0, 0)" stroke="rgb(204, 204, 204)" stroke-width="1px"></line><line x1="50" y1="27.000000000000057" x2="45" y2="27.000000000000057" style="visibility: inherit;" fill="rgb(0, 0, 0)" stroke="rgb(204, 204, 204)" stroke-width="1px"></line><line x1="50" y1="0" x2="45" y2="0" style="visibility: inherit;" fill="rgb(0, 0, 0)" stroke="rgb(204, 204, 204)" stroke-width="1px"></line></g><g transform="translate(40, 0)"><text x="0" y="378" dx="0em" dy="0.3em" style="text-anchor: end; visibility: hidden; font-family: &quot;Helvetica Neue&quot;, sans-serif; font-size: 12px; font-weight: 200;" fill="rgb(50, 49, 63)" stroke="none" stroke-width="1px">0.6</text><text x="0" y="351" dx="0em" dy="0.3em" style="text-anchor: end; visibility: inherit; font-family: &quot;Helvetica Neue&quot;, sans-serif; font-size: 12px; font-weight: 200;" fill="rgb(50, 49, 63)" stroke="none" stroke-width="1px">0.62</text><text x="0" y="323.99999999999994" dx="0em" dy="0.3em" style="text-anchor: end; visibility: inherit; font-family: &quot;Helvetica Neue&quot;, sans-serif; font-size: 12px; font-weight: 200;" fill="rgb(50, 49, 63)" stroke="none" stroke-width="1px">0.64</text><text x="0" y="296.99999999999994" dx="0em" dy="0.3em" style="text-anchor: end; visibility: inherit; font-family: &quot;Helvetica Neue&quot;, sans-serif; font-size: 12px; font-weight: 200;" fill="rgb(50, 49, 63)" stroke="none" stroke-width="1px">0.66</text><text x="0" y="269.99999999999994" dx="0em" dy="0.3em" style="text-anchor: end; visibility: inherit; font-family: &quot;Helvetica Neue&quot;, sans-serif; font-size: 12px; font-weight: 200;" fill="rgb(50, 49, 63)" stroke="none" stroke-width="1px">0.68</text><text x="0" y="243.00000000000003" dx="0em" dy="0.3em" style="text-anchor: end; visibility: inherit; font-family: &quot;Helvetica Neue&quot;, sans-serif; font-size: 12px; font-weight: 200;" fill="rgb(50, 49, 63)" stroke="none" stroke-width="1px">0.7</text><text x="0" y="216.00000000000003" dx="0em" dy="0.3em" style="text-anchor: end; visibility: inherit; font-family: &quot;Helvetica Neue&quot;, sans-serif; font-size: 12px; font-weight: 200;" fill="rgb(50, 49, 63)" stroke="none" stroke-width="1px">0.72</text><text x="0" y="189" dx="0em" dy="0.3em" style="text-anchor: end; visibility: inherit; font-family: &quot;Helvetica Neue&quot;, sans-serif; font-size: 12px; font-weight: 200;" fill="rgb(50, 49, 63)" stroke="none" stroke-width="1px">0.74</text><text x="0" y="161.99999999999997" dx="0em" dy="0.3em" style="text-anchor: end; visibility: inherit; font-family: &quot;Helvetica Neue&quot;, sans-serif; font-size: 12px; font-weight: 200;" fill="rgb(50, 49, 63)" stroke="none" stroke-width="1px">0.76</text><text x="0" y="134.99999999999994" dx="0em" dy="0.3em" style="text-anchor: end; visibility: inherit; font-family: &quot;Helvetica Neue&quot;, sans-serif; font-size: 12px; font-weight: 200;" fill="rgb(50, 49, 63)" stroke="none" stroke-width="1px">0.78</text><text x="0" y="107.99999999999994" dx="0em" dy="0.3em" style="text-anchor: end; visibility: inherit; font-family: &quot;Helvetica Neue&quot;, sans-serif; font-size: 12px; font-weight: 200;" fill="rgb(50, 49, 63)" stroke="none" stroke-width="1px">0.8</text><text x="0" y="81.00000000000006" dx="0em" dy="0.3em" style="text-anchor: end; visibility: inherit; font-family: &quot;Helvetica Neue&quot;, sans-serif; font-size: 12px; font-weight: 200;" fill="rgb(50, 49, 63)" stroke="none" stroke-width="1px">0.82</text><text x="0" y="54.00000000000006" dx="0em" dy="0.3em" style="text-anchor: end; visibility: inherit; font-family: &quot;Helvetica Neue&quot;, sans-serif; font-size: 12px; font-weight: 200;" fill="rgb(50, 49, 63)" stroke="none" stroke-width="1px">0.84</text><text x="0" y="27.000000000000057" dx="0em" dy="0.3em" style="text-anchor: end; visibility: inherit; font-family: &quot;Helvetica Neue&quot;, sans-serif; font-size: 12px; font-weight: 200;" fill="rgb(50, 49, 63)" stroke="none" stroke-width="1px">0.86</text><text x="0" y="0" dx="0em" dy="0.3em" style="text-anchor: end; visibility: hidden; font-family: &quot;Helvetica Neue&quot;, sans-serif; font-size: 12px; font-weight: 200;" fill="rgb(50, 49, 63)" stroke="none" stroke-width="1px">0.88</text></g><line x1="50" y1="0" x2="50" y2="378" fill="rgb(0, 0, 0)" stroke="rgb(204, 204, 204)" stroke-width="1px"></line></g></g><g transform="translate(50, 0)" clip-path="url(#clip_0)"><clipPath id="clip_0"><rect width="1276" height="378"></rect></clipPath><g><g><g><line x1="0" y1="0" x2="0" y2="378" fill="rgb(0, 0, 0)" stroke="rgb(60, 60, 60)" stroke-width="1px" opacity="0.25"></line><line x1="127.633" y1="0" x2="127.633" y2="378" fill="rgb(0, 0, 0)" stroke="rgb(60, 60, 60)" stroke-width="1px" opacity="0.25"></line><line x1="255.266" y1="0" x2="255.266" y2="378" fill="rgb(0, 0, 0)" stroke="rgb(60, 60, 60)" stroke-width="1px" opacity="0.25"></line><line x1="382.89899999999994" y1="0" x2="382.89899999999994" y2="378" fill="rgb(0, 0, 0)" stroke="rgb(60, 60, 60)" stroke-width="1px" opacity="0.25"></line><line x1="510.532" y1="0" x2="510.532" y2="378" fill="rgb(0, 0, 0)" stroke="rgb(60, 60, 60)" stroke-width="1px" opacity="0.25"></line><line x1="638.1650000000001" y1="0" x2="638.1650000000001" y2="378" fill="rgb(0, 0, 0)" stroke="rgb(60, 60, 60)" stroke-width="1px" opacity="0.25"></line><line x1="765.7980000000001" y1="0" x2="765.7980000000001" y2="378" fill="rgb(0, 0, 0)" stroke="rgb(60, 60, 60)" stroke-width="1px" opacity="0.25"></line><line x1="893.4309999999999" y1="0" x2="893.4309999999999" y2="378" fill="rgb(0, 0, 0)" stroke="rgb(60, 60, 60)" stroke-width="1px" opacity="0.25"></line><line x1="1021.064" y1="0" x2="1021.064" y2="378" fill="rgb(0, 0, 0)" stroke="rgb(60, 60, 60)" stroke-width="1px" opacity="0.25"></line><line x1="1148.697" y1="0" x2="1148.697" y2="378" fill="rgb(0, 0, 0)" stroke="rgb(60, 60, 60)" stroke-width="1px" opacity="0.25"></line><line x1="1276.33" y1="0" x2="1276.33" y2="378" fill="rgb(0, 0, 0)" stroke="rgb(60, 60, 60)" stroke-width="1px" opacity="0.25"></line></g><g><line x1="0" y1="378" x2="1276.33" y2="378" fill="rgb(0, 0, 0)" stroke="rgb(60, 60, 60)" stroke-width="1px" opacity="0.25"></line><line x1="0" y1="351" x2="1276.33" y2="351" fill="rgb(0, 0, 0)" stroke="rgb(60, 60, 60)" stroke-width="1px" opacity="0.25"></line><line x1="0" y1="323.99999999999994" x2="1276.33" y2="323.99999999999994" fill="rgb(0, 0, 0)" stroke="rgb(60, 60, 60)" stroke-width="1px" opacity="0.25"></line><line x1="0" y1="296.99999999999994" x2="1276.33" y2="296.99999999999994" fill="rgb(0, 0, 0)" stroke="rgb(60, 60, 60)" stroke-width="1px" opacity="0.25"></line><line x1="0" y1="269.99999999999994" x2="1276.33" y2="269.99999999999994" fill="rgb(0, 0, 0)" stroke="rgb(60, 60, 60)" stroke-width="1px" opacity="0.25"></line><line x1="0" y1="243.00000000000003" x2="1276.33" y2="243.00000000000003" fill="rgb(0, 0, 0)" stroke="rgb(60, 60, 60)" stroke-width="1px" opacity="0.25"></line><line x1="0" y1="216.00000000000003" x2="1276.33" y2="216.00000000000003" fill="rgb(0, 0, 0)" stroke="rgb(60, 60, 60)" stroke-width="1px" opacity="0.25"></line><line x1="0" y1="189" x2="1276.33" y2="189" fill="rgb(0, 0, 0)" stroke="rgb(60, 60, 60)" stroke-width="1px" opacity="0.25"></line><line x1="0" y1="161.99999999999997" x2="1276.33" y2="161.99999999999997" fill="rgb(0, 0, 0)" stroke="rgb(60, 60, 60)" stroke-width="1px" opacity="0.25"></line><line x1="0" y1="134.99999999999994" x2="1276.33" y2="134.99999999999994" fill="rgb(0, 0, 0)" stroke="rgb(60, 60, 60)" stroke-width="1px" opacity="0.25"></line><line x1="0" y1="107.99999999999994" x2="1276.33" y2="107.99999999999994" fill="rgb(0, 0, 0)" stroke="rgb(60, 60, 60)" stroke-width="1px" opacity="0.25"></line><line x1="0" y1="81.00000000000006" x2="1276.33" y2="81.00000000000006" fill="rgb(0, 0, 0)" stroke="rgb(60, 60, 60)" stroke-width="1px" opacity="0.25"></line><line x1="0" y1="54.00000000000006" x2="1276.33" y2="54.00000000000006" fill="rgb(0, 0, 0)" stroke="rgb(60, 60, 60)" stroke-width="1px" opacity="0.25"></line><line x1="0" y1="27.000000000000057" x2="1276.33" y2="27.000000000000057" fill="rgb(0, 0, 0)" stroke="rgb(60, 60, 60)" stroke-width="1px" opacity="0.25"></line><line x1="0" y1="0" x2="1276.33" y2="0" fill="rgb(0, 0, 0)" stroke="rgb(60, 60, 60)" stroke-width="1px" opacity="0.25"></line></g></g></g><g><g><line x1="0" y1="1188" x2="1276.33" y2="1188" fill="rgb(0, 0, 0)" stroke="rgb(153, 153, 153)" stroke-width="1.5px"></line></g></g><g><g><line x1="127.633" y1="0" x2="127.633" y2="378" fill="rgb(0, 0, 0)" stroke="rgb(153, 153, 153)" stroke-width="1.5px"></line></g></g><g><g><g><g><g><path stroke="rgb(238, 51, 119)" stroke-width="2px" d="M135.74655890277776,510.3000347614288L143.634987375,372.60003733634943L151.6209132777778,352.34997618198395L159.95605725000001,349.6500109434128L170.51059727777778,346.94996523857117L178.46106956944448,268.65000772476196L186.31049906944446,307.79998648166656L196.05492408333333,307.79998648166656L207.70143533333334,279.4500296115875L215.51186586111112,257.8499858379364L223.57933506944445,276.7499839067459L231.26745063888893,255.15002059936523L238.9467028055556,234.9000399112701L246.96808231944442,255.15002059936523L254.8600561527778,248.40002703666684L262.64744183333335,267.3000251054764L270.25224141666666,263.2499967813492L278.31439258333336,245.69998133182526L286.01137155555557,220.04998970031735L293.75444022222223,197.09996330738068L301.4000114583333,188.9999871253967L309.14662548611113,188.9999871253967L316.7709245555556,156.6000019311905L324.93234583333333,168.7500064373016L333.66102488888885,187.65000450611115L341.81535544444444,145.79998004436493L350.18949838888886,175.5L358.265831,164.69997811317444L366.81192395833335,144.44999742507932L374.69680706944445,162.00001287460327L382.659688125,152.54997360706327L391.20932644444446,157.94998455047605L399.2324786388889,122.85003411769867L407.00922823611114,139.04998648166654L414.76647834722223,125.54999935626984L422.8924460138889,128.24996459484097L431.3800405138889,107.99998390674591L439.99704069444454,122.85003411769867L447.95283102777785,133.64997553825376L455.6143563888889,107.99998390674591L463.30779,117.45002317428589L470.9959055694444,109.3499665260315L478.7974726944444,113.39999485015869L486.48913362499997,114.74997746944427L494.5016497361112,102.59997296333313L502.09935859722225,91.80003154277802L509.7644293194445,93.1500141620636L517.4277273611111,83.69997489452362L525.0786166388889,122.85003411769867L533.1567219305556,99.90000772476196L541.1497385555556,132.2999929189682L549.4902005694445,103.95003604888916L557.2368145972223,130.95001029968262L564.8416141805556,110.70002961158752L572.5634106805556,94.49999678134918L580.2976159444445,95.84997940063477L588.2090892638889,116.09996008872986L595.9167043194444,106.65000128746033L603.6952265972224,86.40002059936523L611.629744763889,86.40002059936523L619.8567552222223,93.1500141620636L627.5289166666668,94.49999678134918L635.6708384583334,87.75000321865082L643.8801221111111,121.49997103214264L652.2223568055556,103.95003604888916L660.8446750277778,52.649972319602966L669.2010911666667,83.69997489452362L677.3837846111112,63.44999420642853L685.2332141111111,107.99998390674591L692.9213296805556,85.05003798007965L701.1625215833334,72.9000334739685L709.368259875,91.80003154277802L718.1908910000001,109.3499665260315L726.7157117916668,66.15003991127014L734.7335459444445,60.75002896785736L742.7531527777778,86.40002059936523L751.691008138889,75.59999871253967L759.591845375,72.9000334739685L767.5564991111112,86.40002059936523L775.5761059444445,124.20001673698425L783.6949828888891,79.65002703666687L792.6062480416668,95.84997940063477L800.2376378333333,98.55002510547638L808.0888400138889,94.49999678134918L815.702503,83.69997489452362L823.8834237638889,60.75002896785736L832.1795687638889,85.05003798007965L840.3445354027778,91.80003154277802L848.4403674999999,87.75000321865082L856.3092964861111,87.75000321865082L864.0647739166667,74.25001609325409L872.231513236111,66.15003991127014L880.7261984583333,75.59999871253967L888.3912691805556,59.39996588230133L896.1556100138889,89.0999858379364L903.9110874444445,72.9000334739685L911.6222478611112,48.600024461746216L919.4876314861112,70.19998776912689L927.5036929583333,78.29996395111084L935.7041132083334,45.8999787569046L943.319548875,87.75000321865082L950.9881649583332,66.15003991127014L958.9209104444444,68.85000514984131L967.6726343472221,59.39996588230133L976.0113236805556,60.75002896785736L984.325195486111,64.79997682571411L993.0379204166666,66.15003991127014L1001.3358380972222,66.15003991127014L1009.7011176388888,62.100011587142944L1018.5272941249999,58.04998326301575L1026.4440854861111,48.600024461746216L1034.513327375,79.65002703666687L1042.8059270138888,72.9000334739685L1050.9992565416665,102.59997296333313L1059.5701670277776,71.54997038841248L1067.3132356944445,63.44999420642853L1075.0474409583333,49.9500070810318L1083.575807111111,70.19998776912689L1091.9020876805555,64.79997682571411L1100.7513090138887,72.9000334739685L1108.4855142777778,66.15003991127014L1116.349125222222,43.200013518333435L1124.5353640277779,49.9500070810318L1132.835054388889,64.79997682571411L1141.7268200555557,79.65002703666687L1150.1559160972222,93.1500141620636L1158.9165034027778,98.55002510547638L1167.2516473750002,60.75002896785736L1175.547792375,66.15003991127014L1184.5335101111111,63.44999420642853" style="fill: none;" fill="none"></path></g><g><path stroke="rgb(51, 187, 238)" stroke-width="2px" d="M127.633,402.29997682571405L140.43884433333335,329.4000302553177L150.2843121388889,386.10002446174616L161.60819552777778,330.75001287460327L171.77806387500002,264.59997940063477L181.70330230555555,301.0499929189682L192.79850990277782,243.00001609325406L202.69006740277777,290.24997103214264L212.57807954166665,221.39997231960294L222.07964731944446,205.20001995563507L231.57766973611115,174.1500173807144L242.56297113888888,207.8999851942062L253.10864776388888,197.09996330738068L263.1863367222222,170.09998905658722L273.4537025,186.30002188682556L283.57748115277775,168.7500064373016L294.52732894444443,175.5L306.7871876666667,140.39996910095215L317.59699369444445,166.04996073246002L328.9456946111111,149.8500083684921L341.38459406944446,147.14996266365048L351.6998222222222,186.30002188682556L361.97250604166663,197.09996330738068L372.78053938888894,135.00003862380981L382.86000102777774,156.6000019311905L393.3312250694444,159.29996716976166L404.0346702638889,210.60003089904785L414.1300860277778,114.74997746944427L425.1880673333333,148.50002574920654L435.5139315694445,135.00003862380981L445.40017102777784,113.39999485015869L455.98484662500005,141.75003218650818L466.53584129166666,159.29996716976166L476.61353025000005,170.09998905658722L486.8897594305556,139.04998648166654L497.1553525277778,149.8500083684921L507.452853875,141.75003218650818L518.3388851666666,120.14998841285706L528.8615169444445,137.70000386238098L539.3486951111112,105.30001866817474L550.9491166666667,130.95001029968262L561.9220093055557,129.60002768039703L572.7938591527778,98.55002510547638L583.0169079166667,82.34999227523804L593.0254623333334,75.59999871253967L603.0765610833333,137.70000386238098L613.1861582916667,102.59997296333313L623.8116055416667,97.19996201992035L633.7634341805555,128.24996459484097L644.2967020416667,110.70002961158752L654.5817946249999,113.39999485015869L665.1664702222224,98.55002510547638L677.1533361388889,97.19996201992035L688.0836844444445,113.39999485015869L699.4057951527777,110.70002961158752L710.6091362638889,103.95003604888916L721.0839056666667,102.59997296333313L732.2712926527779,64.79997682571411L742.8931945416667,43.200013518333435L753.5824582916666,95.84997940063477L763.7080096249999,122.85003411769867L773.8229248750001,99.90000772476196L784.1239715833334,76.94998133182526L794.1679796111112,89.0999858379364L804.0347195833334,90.44996845722198L814.1691343194444,52.649972319602966L824.1794614166668,71.54997038841248L834.3989648194445,99.90000772476196L845.9940683333333,79.65002703666687L856.6744686805555,68.85000514984131L867.1598741666667,83.69997489452362L877.7055507916667,87.75000321865082L888.1360031805555,93.1500141620636L899.4191149166667,48.600024461746216L909.67229925,72.9000334739685L919.6702175833334,91.80003154277802L930.2655292638889,67.50002253055573L940.8874311527778,70.19998776912689L952.4187181666666,72.9000334739685L963.8135087777778,51.29998970031738L974.337913236111,62.100011587142944L984.9828599722222,74.25001609325409L995.7554397083334,75.59999871253967L1007.1342761944444,109.3499665260315L1018.2046662638888,51.29998970031738L1031.5192699166666,54.000035405159L1041.8894511666667,48.600024461746216L1052.8002999861112,68.85000514984131L1065.2321087222222,76.94998133182526L1078.2790376111109,49.9500070810318L1091.253286597222,63.44999420642853L1105.5552733194445,76.94998133182526L1116.4678948194444,76.94998133182526L1126.8008497777778,44.54999613761902L1138.3799991666665,62.100011587142944L1150.6416305694445,59.39996588230133L1161.0827190416667,52.649972319602966L1171.5096260694443,60.75002896785736" style="fill: none;" fill="none"></path></g><g><path stroke="rgb(0, 153, 136)" stroke-width="2px" d="M127.633,419.849992275238L161.9751404027778,369.8999916315078L196.95721848611112,291.60003411769867L230.92709597222225,307.79998648166656L263.9858156527778,330.75001287460327L299.9286865972223,194.3999980688095L333.50857436111113,306.450003862381L366.1241239027778,215.99996137619016L401.0849298194444,178.19996523857114L436.13436976388886,148.50002574920654L470.86472720833336,159.29996716976166L504.15389536111115,145.79998004436493L537.1133449305556,98.55002510547638L569.8157558194445,141.75003218650818L603.3123275972223,125.54999935626984L637.0730287777778,124.20001673698425L671.0180887361112,91.80003154277802L703.5751398194444,78.29996395111084L736.3254130833335,76.94998133182526L769.1200033611111,78.29996395111084L802.7388900972222,112.05001223087311L836.917943888889,128.24996459484097L872.543505013889,87.75000321865082L910.4522786944444,85.05003798007965L945.8208011388888,95.84997940063477L981.3506375138887,98.55002510547638L1016.2352181666666,78.29996395111084L1050.2387765833332,86.40002059936523L1084.3930128472223,79.65002703666687L1118.0774887638888,81.00000965595245L1151.8293265416667,89.0999858379364" style="fill: none;" fill="none"></path></g><g><path stroke="rgb(187, 187, 187)" stroke-width="2px" d="M145.68066073611112,475.200003862381L152.13676331944447,356.40000450611115L157.9812911111111,288.89998841285706L163.88963540277777,310.5000321865082L169.83697866666665,207.8999851942062L175.67441573611111,253.80003798007965L181.76180076388889,203.8500373363495L187.66837237500002,257.8499858379364L193.72739451388887,194.3999980688095L200.92979561111113,228.1499658823013L206.89309300000002,209.2499678134918L212.78902852777776,203.8500373363495L218.66014652777775,221.39997231960294L224.55785473611112,159.29996716976166L230.36692891666664,201.14999163150787L236.18841186111115,214.64997875690457L242.04180305555562,191.7000328302383L247.8721494027778,171.4499716758728L254.99655255555555,156.6000019311905L260.8623525138889,215.99996137619016L266.68915350000003,157.94998455047605L272.5407720138889,182.24999356269836L278.4845699166667,166.04996073246002L284.51168380555555,151.1999909877777L290.38457448611115,140.39996910095215L296.2521471250001,191.7000328302383L302.0718573888889,149.8500083684921L308.96403938888886,162.00001287460327L314.8635202777778,160.65003025531766L320.7027300277778,132.2999929189682L326.53307637500006,175.5L332.4077397361111,151.1999909877777L338.25935825,163.34999549388883L344.04361490277773,155.25001931190488L349.9342323888889,152.54997360706327L355.74507925000006,168.7500064373016L362.5964895972222,172.80003476142883L368.49597048611116,147.14996266365048L374.5567653055556,143.10001480579376L380.48283640277776,151.1999909877777L386.45322451388887,153.90003669261932L392.7887848194445,155.25001931190488L398.9878487222222,167.40002381801605L405.250729125,118.80000579357147L412.2368631944445,167.40002381801605L418.8542797083334,149.8500083684921L424.8016229722223,144.44999742507932L430.6940131388889,133.64997553825376L436.8150790972223,143.10001480579376L442.79078525,141.75003218650818L448.98984915277777,152.54997360706327L455.28286512500006,188.9999871253967L461.42520325,141.75003218650818L468.7056022916667,148.50002574920654L474.98620950000003,126.89998197555542L481.2809981527778,133.64997553825376L487.45701720833335,159.29996716976166L493.71989761111115,152.54997360706327L499.9650512083334,125.54999935626984L506.0754810833334,141.75003218650818L512.0033248611111,164.69997811317444L519.2518156527779,156.6000019311905L525.5572403888889,129.60002768039703L531.7740310972223,133.64997553825376L537.7231470416667,120.14998841285706L543.5339939027779,136.3500212430954L549.5664258333334,114.74997746944427L555.4481799166667,105.30001866817474L561.5284742222223,126.89998197555542L567.6566309027778,151.1999909877777L575.0398454166666,118.80000579357147L581.2265005555556,170.09998905658722L587.3706113611111,140.39996910095215L593.6069015555556,130.95001029968262L599.6109705972223,102.59997296333313L605.4891793194445,145.79998004436493L611.3443431944445,101.24999034404755L617.2385060416667,132.2999929189682L623.0830338333334,136.3500212430954L630.024850888889,128.24996459484097L635.9526946666667,139.04998648166654L641.7794956527779,130.95001029968262L647.6807492222223,135.00003862380981L653.5731393888889,93.1500141620636L659.4265305833335,94.49999678134918L665.2763764166667,90.44996845722198L671.4931671250001,116.09996008872986L679.1936914583334,109.3499665260315L685.3945280416667,128.24996459484097L691.6449996805555,107.99998390674591L697.8263367777779,151.1999909877777L704.1104893472223,137.70000386238098L710.5435470833334,133.64997553825376L716.9961043055556,128.24996459484097L722.8831764305556,126.89998197555542L728.8057021666667,155.25001931190488L735.7670187083334,128.24996459484097L741.6735903194444,120.14998841285706L747.4986186250001,116.09996008872986L753.3254196111111,149.8500083684921L759.2638994722223,114.74997746944427L765.459418013889,133.64997553825376L771.3464901388888,118.80000579357147L777.5366906388889,153.90003669261932L783.5602591666668,124.20001673698425L790.2964452777778,103.95003604888916L796.3164684444445,114.74997746944427L802.3099014027779,116.09996008872986L808.1526565138889,114.74997746944427L813.9528672916666,102.59997296333313L819.8133492083333,122.85003411769867L825.6543316388888,117.45002317428589L831.5325403611112,102.59997296333313L838.4956295833333,113.39999485015869L844.4146099583332,90.44996845722198L850.2343202222222,102.59997296333313L856.2809335972222,112.05001223087311L862.1165979861112,113.39999485015869L867.9664438194444,126.89998197555542L873.80742625,103.95003604888916L879.6785442500001,106.65000128746033L885.6950220555557,102.59997296333313L892.6403844722223,122.85003411769867L898.5487287638889,129.60002768039703L904.3932565555556,105.30001866817474L910.2767833194445,112.05001223087311L916.3180786527778,94.49999678134918L922.2069234583332,139.04998648166654L928.1028589861112,122.85003411769867L934.0076579166665,109.3499665260315L939.8521857083332,116.09996008872986L946.976588861111,145.79998004436493L952.9469769722222,82.34999227523804L958.8872295138888,98.55002510547638L964.9338428888889,76.94998133182526L970.8209150138889,121.49997103214264L976.6725335277778,118.80000579357147L982.4833803888888,112.05001223087311L988.3722251944446,133.64997553825376L994.2415705138889,106.65000128746033L1001.2702489166667,99.90000772476196L1007.136048875,102.59997296333313L1012.9912127499999,120.14998841285706L1018.8180137361111,156.6000019311905L1024.736994111111,112.05001223087311L1030.6027940694444,99.90000772476196L1036.4366857777777,130.95001029968262" style="fill: none;" fill="none"></path></g></g></g></g></g></g><g transform="translate(50, 378)" clip-path="url(#clip_1)"><clipPath id="clip_1"><rect width="1276" height="22"></rect></clipPath><g><g><line x1="0" y1="0" x2="0" y2="5" style="visibility: inherit;" fill="rgb(0, 0, 0)" stroke="rgb(204, 204, 204)" stroke-width="1px"></line><line x1="127.633" y1="0" x2="127.633" y2="5" style="visibility: inherit;" fill="rgb(0, 0, 0)" stroke="rgb(204, 204, 204)" stroke-width="1px"></line><line x1="255.266" y1="0" x2="255.266" y2="5" style="visibility: inherit;" fill="rgb(0, 0, 0)" stroke="rgb(204, 204, 204)" stroke-width="1px"></line><line x1="382.89899999999994" y1="0" x2="382.89899999999994" y2="5" style="visibility: inherit;" fill="rgb(0, 0, 0)" stroke="rgb(204, 204, 204)" stroke-width="1px"></line><line x1="510.532" y1="0" x2="510.532" y2="5" style="visibility: inherit;" fill="rgb(0, 0, 0)" stroke="rgb(204, 204, 204)" stroke-width="1px"></line><line x1="638.1650000000001" y1="0" x2="638.1650000000001" y2="5" style="visibility: inherit;" fill="rgb(0, 0, 0)" stroke="rgb(204, 204, 204)" stroke-width="1px"></line><line x1="765.7980000000001" y1="0" x2="765.7980000000001" y2="5" style="visibility: inherit;" fill="rgb(0, 0, 0)" stroke="rgb(204, 204, 204)" stroke-width="1px"></line><line x1="893.4309999999999" y1="0" x2="893.4309999999999" y2="5" style="visibility: inherit;" fill="rgb(0, 0, 0)" stroke="rgb(204, 204, 204)" stroke-width="1px"></line><line x1="1021.064" y1="0" x2="1021.064" y2="5" style="visibility: inherit;" fill="rgb(0, 0, 0)" stroke="rgb(204, 204, 204)" stroke-width="1px"></line><line x1="1148.697" y1="0" x2="1148.697" y2="5" style="visibility: inherit;" fill="rgb(0, 0, 0)" stroke="rgb(204, 204, 204)" stroke-width="1px"></line><line x1="1276.33" y1="0" x2="1276.33" y2="5" style="visibility: inherit;" fill="rgb(0, 0, 0)" stroke="rgb(204, 204, 204)" stroke-width="1px"></line></g><g transform="translate(0, 8)"><text x="0" y="0" dx="0em" dy="0.95em" style="text-anchor: middle; visibility: hidden; font-family: &quot;Helvetica Neue&quot;, sans-serif; font-size: 12px; font-weight: 200;" fill="rgb(50, 49, 63)" stroke="none" stroke-width="1px">-0.02</text><text x="127.633" y="0" dx="0em" dy="0.95em" style="text-anchor: middle; visibility: inherit; font-family: &quot;Helvetica Neue&quot;, sans-serif; font-size: 12px; font-weight: 200;" fill="rgb(50, 49, 63)" stroke="none" stroke-width="1px">0</text><text x="255.266" y="0" dx="0em" dy="0.95em" style="text-anchor: middle; visibility: inherit; font-family: &quot;Helvetica Neue&quot;, sans-serif; font-size: 12px; font-weight: 200;" fill="rgb(50, 49, 63)" stroke="none" stroke-width="1px">0.02</text><text x="382.89899999999994" y="0" dx="0em" dy="0.95em" style="text-anchor: middle; visibility: inherit; font-family: &quot;Helvetica Neue&quot;, sans-serif; font-size: 12px; font-weight: 200;" fill="rgb(50, 49, 63)" stroke="none" stroke-width="1px">0.04</text><text x="510.532" y="0" dx="0em" dy="0.95em" style="text-anchor: middle; visibility: inherit; font-family: &quot;Helvetica Neue&quot;, sans-serif; font-size: 12px; font-weight: 200;" fill="rgb(50, 49, 63)" stroke="none" stroke-width="1px">0.06</text><text x="638.1650000000001" y="0" dx="0em" dy="0.95em" style="text-anchor: middle; visibility: inherit; font-family: &quot;Helvetica Neue&quot;, sans-serif; font-size: 12px; font-weight: 200;" fill="rgb(50, 49, 63)" stroke="none" stroke-width="1px">0.08</text><text x="765.7980000000001" y="0" dx="0em" dy="0.95em" style="text-anchor: middle; visibility: inherit; font-family: &quot;Helvetica Neue&quot;, sans-serif; font-size: 12px; font-weight: 200;" fill="rgb(50, 49, 63)" stroke="none" stroke-width="1px">0.1</text><text x="893.4309999999999" y="0" dx="0em" dy="0.95em" style="text-anchor: middle; visibility: inherit; font-family: &quot;Helvetica Neue&quot;, sans-serif; font-size: 12px; font-weight: 200;" fill="rgb(50, 49, 63)" stroke="none" stroke-width="1px">0.12</text><text x="1021.064" y="0" dx="0em" dy="0.95em" style="text-anchor: middle; visibility: inherit; font-family: &quot;Helvetica Neue&quot;, sans-serif; font-size: 12px; font-weight: 200;" fill="rgb(50, 49, 63)" stroke="none" stroke-width="1px">0.14</text><text x="1148.697" y="0" dx="0em" dy="0.95em" style="text-anchor: middle; visibility: inherit; font-family: &quot;Helvetica Neue&quot;, sans-serif; font-size: 12px; font-weight: 200;" fill="rgb(50, 49, 63)" stroke="none" stroke-width="1px">0.16</text><text x="1276.33" y="0" dx="0em" dy="0.95em" style="text-anchor: middle; visibility: hidden; font-family: &quot;Helvetica Neue&quot;, sans-serif; font-size: 12px; font-weight: 200;" fill="rgb(50, 49, 63)" stroke="none" stroke-width="1px">0.18</text></g><line x1="0" y1="0" x2="1276.33" y2="0" fill="rgb(0, 0, 0)" stroke="rgb(204, 204, 204)" stroke-width="1px"></line></g></g></g></g></svg>